#!OML:ASF F:\VICON\USERDATA\Patient Classification 1\PLAYGROUND\JustinFriday\JustinFriday.ASF
:FULLY-SPECIFIED
:DEGREES
3665
root -13.1493 17.7001 12.0605 296.147 83.038 -64.1123
lowerback 15.3654 2.07788 3.92711
upperback 1.37681 3.79904 3.28757
thorax -7.1253 1.83189 0.472647
lowerneck -7.31409 6.59824 1.04579
upperneck 1.23393 8.72476 0.0143126
head 1.65961 4.37099 0.147506
rclavicle -2.44505e-014 1.70955e-014
rhumerus 71.2022 -32.4273 -40.7094
rradius 91.3883
rwrist -2.09626
rhand -16.0628 -365.842
rfingers 7.12502
rthumb 10.1396 -395.577
lclavicle -2.44505e-014 1.70955e-014
lhumerus 50.7794 41.6321 39.0665
lradius 84.249
lwrist 4.37565
lhand -18.6597 -26.4793
lfingers 7.12502
lthumb 7.63359 3.36291
rfemur -6.97815 -2.60729 27.9627
rtibia 26.667
rfoot -15.8747 1.22474
rtoes 25.5783
lfemur -12.022 1.27097 -10.9369
ltibia 32.4241
lfoot -16.1849 0.927263
ltoes 5.78764
3666
root -13.1075 17.7072 12.0457 297.998 82.9154 -62.2426
lowerback 15.4847 2.08683 4.13337
upperback 1.57513 3.8106 2.9106
thorax -6.9369 1.82965 -0.0466784
lowerneck -7.23841 6.74725 1.59801
upperneck 0.791546 8.88057 0.157764
head 1.52209 4.45787 0.0949889
rclavicle -5.09386e-014 -1.59028e-014
rhumerus 71.392 -33.2813 -41.5937
rradius 91.7481
rwrist -2.29773
rhand -15.9374 -365.998
rfingers 7.12502
rthumb 10.2605 -395.728
lclavicle -5.09386e-014 -1.59028e-014
lhumerus 51.4533 42.3391 39.0732
lradius 85.0665
lwrist 5.06066
lhand -18.409 -26.1193
lfingers 7.12502
lthumb 7.87563 3.71398
rfemur -6.8427 -2.13119 27.9189
rtibia 26.7926
rfoot -16.1793 1.11983
rtoes 25.7182
lfemur -11.7413 1.25095 -10.9854
ltibia 32.3423
lfoot -16.3657 1.06835
ltoes 6.10753
3667
root -13.0692 17.6978 12.032 300.474 83.0552 -59.7127
lowerback 15.7464 1.97052 4.39016
upperback 1.73274 3.63068 2.03368
thorax -6.83949 1.72115 -1.09117
lowerneck -7.35961 6.94543 3.21358
upperneck 0.449816 9.01693 0.0795826
head 1.51703 4.5342 -0.18442
rclavicle 2.64632e-014 1.03368e-014
rhumerus 71.298 -34.4477 -42.9193
rradius 92.1881
rwrist -2.66214
rhand -16.1849 -366.25
rfingers 7.12502
rthumb 10.0217 -395.991
lclavicle 2.64632e-014 1.03368e-014
lhumerus 52.3503 43.0456 38.3604
lradius 86.0392
lwrist 5.64132
lhand -17.7486 -24.5768
lfingers 7.12502
lthumb 8.51293 5.23161
rfemur -6.60536 -1.4 27.6595
rtibia 26.7728
rfoot -16.4504 0.538281
rtoes 25.7724
lfemur -11.5354 0.685172 -11.4059
ltibia 32.398
lfoot -16.6044 1.93046
ltoes 5.45891
3668
root -13.031 17.7027 12.0215 300.963 82.9209 -59.368
lowerback 15.7193 2.2994 3.50493
upperback 1.77719 4.02323 3.22517
thorax -6.91117 1.96214 0.588161
lowerneck -6.47576 6.78929 0.632979
upperneck -0.166168 9.03535 0.129635
head 1.03835 4.53401 0.189147
rclavicle -1.68967e-014 -3.57812e-015
rhumerus 71.7268 -35.0336 -41.1382
rradius 92.6321
rwrist -3.62666
rhand -16.4134 -366.68
rfingers 7.12502
rthumb 9.80136 -396.432
lclavicle -1.68967e-014 -3.57812e-015
lhumerus 51.6144 43.8425 40.1211
lradius 87.2096
lwrist 5.56631
lhand -17.2363 -23.3596
lfingers 7.12502
lthumb 9.00729 6.42811
rfemur -6.56596 -1.16281 27.7467
rtibia 26.6728
rfoot -16.5138 0.391805
rtoes 25.9255
lfemur -11.5799 0.524112 -11.3778
ltibia 32.4877
lfoot -16.7717 2.36511
ltoes 4.69627
3669
root -12.991 17.7005 12.0022 299.683 82.2614 -60.776
lowerback 15.7877 2.40201 3.73927
upperback 2.06485 4.22503 3.49035
thorax -6.64329 2.07183 0.69878
lowerneck -7.15063 6.90082 1.06301
upperneck -0.187956 9.15742 -0.313363
head 1.19015 4.58995 0.0185645
rclavicle 1.18277e-014 2.94201e-014
rhumerus 71.8208 -36.159 -41.1618
rradius 93.3441
rwrist -4.07771
rhand -16.5239 -366.849
rfingers 7.12502
rthumb 9.69472 -396.606
lclavicle 1.18277e-014 2.94201e-014
lhumerus 52.3183 44.8279 40.2744
lradius 87.4838
lwrist 6.18424
lhand -17.324 -23.0835
lfingers 7.12502
lthumb 8.9227 6.70781
rfemur -6.49274 -1.52986 28.3393
rtibia 26.5443
rfoot -16.4539 0.847989
rtoes 25.5877
lfemur -11.5689 0.664098 -10.6843
ltibia 32.6186
lfoot -17.0385 2.21758
ltoes 4.99523
3670
root -12.9509 17.702 11.9822 300.64 82.1165 -59.9356
lowerback 15.9357 2.41787 3.74598
upperback 2.20436 4.2454 3.41038
thorax -6.56789 2.0839 0.602119
lowerneck -7.26926 7.00082 1.30122
upperneck -0.498114 9.27884 -0.460347
head 1.13109 4.65108 -0.0621404
rclavicle -3.98563e-014 2.38542e-015
rhumerus 71.9385 -37.2146 -41.3984
rradius 94.0046
rwrist -4.75934
rhand -16.4802 -367.013
rfingers 7.12502
rthumb 9.73685 -396.768
lclavicle -3.98563e-014 2.38542e-015
lhumerus 52.7782 45.7704 40.3163
lradius 87.9273
lwrist 6.84184
lhand -17.1826 -23.1684
lfingers 7.12502
lthumb 9.05914 6.61706
rfemur -6.47001 -1.63377 28.2992
rtibia 26.5238
rfoot -16.5295 1.12501
rtoes 25.4214
lfemur -11.5184 0.800538 -10.6776
ltibia 32.6692
lfoot -17.3074 2.10034
ltoes 5.60378
3671
root -12.9124 17.7098 11.968 302.218 82.3193 -58.5204
lowerback 16.0308 2.0235 4.36499
upperback 2.32409 3.73772 2.37234
thorax -6.38271 1.80746 -0.73966
lowerneck -7.20903 7.39428 2.24759
upperneck -1.01972 9.73735 -0.0402521
head 0.982563 4.89179 -0.0840404
rclavicle -1.83876e-015 1.37161e-014
rhumerus 72.379 -38.0567 -43.3916
rradius 94.3798
rwrist -5.12214
rhand -16.4634 -367.292
rfingers 7.12502
rthumb 9.75312 -397.046
lclavicle -1.83876e-015 1.37161e-014
lhumerus 53.2168 46.8015 38.9338
lradius 88.5374
lwrist 7.42767
lhand -16.9515 -23.0821
lfingers 7.12502
lthumb 9.28218 6.6936
rfemur -6.56376 -1.43048 27.9555
rtibia 26.6147
rfoot -16.7548 1.08407
rtoes 25.3625
lfemur -11.5673 0.980907 -11.0492
ltibia 32.6731
lfoot -17.426 1.95193
ltoes 6.16733
